<svg width="130" height="130" viewBox="0 0 130 130" fill="none" xmlns="http://www.w3.org/2000/svg">
<path d="M28.9276 0L0 28.9276V130H101.072L130 101.072V0H28.9276Z" fill="black"/>
<path d="M88.6792 80.4564L76.3937 80.4561V84.0288V102.379C76.3914 103.972 75.7573 105.5 74.6303 106.627C73.5033 107.754 71.9754 108.388 70.3816 108.391C68.7878 108.388 67.2599 107.754 66.133 106.627C65.006 105.5 64.3719 103.972 64.3696 102.379V80.4564H52.084V84.0288V104.121C52.084 112.983 58.6189 119.43 66.635 119.43H67.332C72.1242 119.43 74.3025 118.141 76.9164 116.05V118.664H88.6792V115.091V80.4564Z" fill="white"/>
<path d="M55.6779 18.124L52.1055 21.7835V30.4095H60.7315L64.3039 26.8372V18.2112H55.6779V18.124Z" fill="white"/>
<path d="M64.2824 36.0723H52.084V73.5388H64.2824V36.0723Z" fill="white"/>
<path d="M37.2056 46.5279C37.2056 46.5279 36.3343 45.7437 35.0273 45.0466C33.6332 44.3496 32.152 44.0882 30.7579 44.0882C29.7123 44.0882 28.4925 44.2624 27.534 44.7852C27.1855 44.9595 26.7498 45.308 26.4884 45.7437C26.227 46.1793 26.1399 46.615 26.1399 47.1378C26.1399 47.6606 26.227 48.0962 26.4884 48.5319C26.7498 48.9675 27.1855 49.2289 27.6211 49.4032C29.2766 50.1002 31.0193 50.623 32.9362 50.9716C34.4174 51.2329 35.8115 51.7557 37.2056 52.2785C38.5997 52.8013 39.9067 53.5855 41.1265 54.4568C42.2592 55.3281 43.2177 56.548 43.8276 57.7678C44.6118 59.249 44.8732 60.8174 44.8732 62.4729C44.9603 64.4769 44.5246 66.3938 43.5662 68.1364C42.6077 69.8791 41.3008 71.3603 39.6453 72.493C38.0769 73.5386 36.3343 74.2356 34.4174 74.6713C32.5876 75.1941 30.5836 75.3683 28.6667 75.3683C25.6171 75.3683 22.5675 74.8456 19.6922 73.8871C16.9911 73.0158 13.5059 70.1405 13.5059 70.1405L20.3892 63.1699C21.5219 64.4769 21.8705 64.4769 23.4388 65.2611C25.0072 66.0453 26.7498 66.4809 28.4925 66.4809C29.538 66.4809 30.5836 66.2195 31.4549 65.7839C31.8034 65.6096 32.3262 65.174 32.5876 64.7383C32.849 64.2155 32.849 63.6927 32.849 63.2571C32.849 62.6472 32.6748 62.2115 32.3262 61.6887C32.0648 61.2531 31.5421 60.9045 31.0193 60.7303C29.1895 59.9461 27.2726 59.3362 25.3557 58.9876C23.9616 58.7262 22.7418 58.2906 21.4348 57.7678C20.1278 57.245 18.9951 56.548 17.9496 55.6766C16.904 54.8053 16.0327 53.6726 15.4228 52.5399C14.7257 51.1458 14.4643 49.5774 14.4643 48.0091C14.3772 45.9179 14.8128 44.001 15.9455 42.1713C16.904 40.6029 18.1238 39.2959 19.6922 38.2504C21.2606 37.2919 22.916 36.5077 24.6587 35.985C26.4013 35.4622 28.3182 35.2879 30.148 35.2879C33.0233 35.2879 35.7244 35.8107 38.3383 36.682C40.8651 37.4662 43.7404 39.7316 43.7404 39.7316L37.2056 46.5279Z" fill="white"/>
<path d="M37.2056 90.267C37.2056 90.267 36.3343 89.4828 35.0273 88.7858C33.6332 88.0887 32.152 87.8273 30.7579 87.8273C29.7123 87.8273 28.4925 88.0016 27.534 88.5244C27.1855 88.6986 26.7498 89.0471 26.4884 89.4828C26.227 89.9185 26.1399 90.3541 26.1399 90.8769C26.1399 91.3997 26.227 91.8354 26.4884 92.271C26.7498 92.7067 27.1855 92.9681 27.6211 93.1423C29.2766 93.8394 31.0193 94.3622 32.9362 94.7107C34.4174 94.9721 35.8115 95.4949 37.2056 96.0177C38.5997 96.5404 39.9067 97.3246 41.1265 98.1959C42.2592 99.0673 43.2177 100.287 43.8276 101.507C44.6118 102.988 44.8732 104.557 44.8732 106.212C44.9603 108.216 44.5246 110.133 43.5662 111.876C42.6949 113.618 41.3008 115.099 39.6453 116.232C38.0769 117.278 36.3343 117.975 34.4174 118.41C32.5876 118.933 30.5836 119.107 28.6667 119.107C25.6171 119.107 22.5675 118.585 19.6922 117.626C16.9911 116.755 13.5059 113.88 13.5059 113.88L20.3892 106.909C21.5219 108.216 21.8705 108.216 23.4388 109C25.0072 109.784 26.7498 110.22 28.4925 110.22C29.538 110.22 30.5836 109.959 31.4549 109.523C31.8034 109.349 32.3262 108.913 32.5876 108.477C32.849 107.955 32.849 107.432 32.849 106.996C32.849 106.386 32.6748 105.951 32.3262 105.428C32.0648 104.992 31.5421 104.644 31.0193 104.469C29.1895 103.685 27.2726 103.075 25.3557 102.727C23.9616 102.465 22.7418 102.03 21.4348 101.507C20.1278 100.984 18.9951 100.287 17.9496 99.4158C16.904 98.5445 16.0327 97.4118 15.4228 96.2791C14.7257 94.885 14.4643 93.3166 14.4643 91.7482C14.3772 89.6571 14.8128 87.7402 15.9455 85.9104C16.904 84.3421 18.1238 83.0351 19.6922 81.9895C21.2606 81.0311 22.916 80.2469 24.6587 79.7241C26.4013 79.2013 28.3182 79.027 30.148 79.027C33.0233 79.027 35.7244 79.5498 38.3383 80.4211C40.8651 81.2053 43.7404 83.4707 43.7404 83.4707L37.2056 90.267Z" fill="white"/>
</svg>
